<?xml version="1.0" encoding="UTF-8"?>
<svg width="24" height="24" viewBox="0 0 24 24" fill="none" xmlns="http://www.w3.org/2000/svg">
<g clip-path="url(#clip0_111_1213)">
<path d="M19.0761 4.92254C17.1912 3.03793 14.6781 2 11.9999 2C9.32756 2 6.81553 3.04102 4.9265 4.93129C3.0374 6.82168 1.99807 9.33461 1.99994 12.0072C2.00182 14.6832 3.05482 17.2001 4.96498 19.0941C6.85678 20.9699 9.35225 22 11.9998 22C12.0263 22 12.0528 21.9999 12.0793 21.9997C13.8093 21.9862 15.5113 21.5234 17.0012 20.6613L16.4144 19.647C15.0998 20.4076 13.5976 20.8159 12.0702 20.8279C9.70772 20.8457 7.47744 19.935 5.79014 18.2619C4.10334 16.5895 3.1735 14.3678 3.17182 12.0064C3.17018 9.64695 4.08771 7.42852 5.75545 5.75965C7.42307 4.0909 9.64076 3.17188 11.9999 3.17188C16.8669 3.17188 20.8272 7.13145 20.8281 11.9984C20.8284 13.9276 20.2179 15.76 19.0625 17.2977C18.962 17.4314 18.8137 17.5116 18.6449 17.5236C18.4742 17.5356 18.3067 17.4732 18.1856 17.3522L17.8029 16.9694L18.5711 16.2012L14.9803 12.6104L13.6741 13.9166C11.8673 13.5575 10.4424 12.1327 10.0833 10.3258L11.3896 9.01957L7.79877 5.42887L5.70111 7.52652L5.68822 7.7493C5.52377 10.5968 6.58498 13.3854 8.59978 15.4002C10.4784 17.2788 13.0297 18.3284 15.6743 18.3284C15.866 18.3284 16.0583 18.3229 16.2506 18.3117L16.4734 18.2989L16.9742 17.798L17.357 18.1808C17.7182 18.542 18.2177 18.7286 18.7274 18.6925C19.2327 18.6569 19.6963 18.405 19.9994 18.0016C21.3085 16.2593 22.0003 14.1834 21.9999 11.9982C21.9995 9.32004 20.9611 6.80719 19.0761 4.92254ZM15.9633 17.1518C13.5262 17.2314 11.1552 16.2983 9.42842 14.5715C7.70166 12.8448 6.76834 10.4739 6.84822 8.03668L7.79877 7.08613L9.73229 9.01965L8.83662 9.91527L8.87537 10.2027C9.21951 12.7565 11.2435 14.7805 13.7972 15.1246L14.0847 15.1634L14.9803 14.2677L16.9138 16.2013L15.9633 17.1518Z" fill="#605E5C"/>
</g>
<defs>
<clipPath id="clip0_111_1213">
<rect width="20" height="20" fill="white" transform="translate(2 2)"/>
</clipPath>
</defs>
</svg>
