<?xml version="1.0" encoding="UTF-8"?>
<svg width="24" height="25" viewBox="0 0 24 25" fill="none" xmlns="http://www.w3.org/2000/svg">
<g clip-path="url(#clip0_111_1264)">
<path d="M19.0711 15.4289C17.9819 14.3398 16.6855 13.5335 15.2711 13.0454C16.786 12.002 17.7812 10.2558 17.7812 8.28125C17.7812 5.09348 15.1878 2.5 12 2.5C8.81223 2.5 6.21875 5.09348 6.21875 8.28125C6.21875 10.2558 7.21402 12.002 8.72898 13.0454C7.31453 13.5335 6.01813 14.3398 4.92895 15.4289C3.0402 17.3177 2 19.8289 2 22.5H3.5625C3.5625 17.8475 7.34754 14.0625 12 14.0625C16.6525 14.0625 20.4375 17.8475 20.4375 22.5H22C22 19.8289 20.9598 17.3177 19.0711 15.4289ZM12 12.5C9.67379 12.5 7.78125 10.6075 7.78125 8.28125C7.78125 5.955 9.67379 4.0625 12 4.0625C14.3262 4.0625 16.2188 5.955 16.2188 8.28125C16.2188 10.6075 14.3262 12.5 12 12.5Z" fill="#605E5C"/>
</g>
<defs>
<clipPath id="clip0_111_1264">
<rect width="20" height="20" fill="white" transform="translate(2 2.5)"/>
</clipPath>
</defs>
</svg>
