<?xml version="1.0" encoding="UTF-8"?>
<svg width="24" height="25" viewBox="0 0 24 25" fill="none" xmlns="http://www.w3.org/2000/svg">
<path d="M21.6527 20.4768L17.8081 16.633C18.9733 15.108 19.6123 13.2583 19.6126 11.3064C19.6126 8.95418 18.6963 6.7426 17.0324 5.07936C15.3688 3.41611 13.157 2.5 10.804 2.5C8.45134 2.5 6.23929 3.41611 4.5757 5.07936C1.14143 8.5132 1.14143 14.1002 4.5757 17.5334C6.23929 19.197 8.45134 20.1131 10.804 20.1131C12.7563 20.1128 14.6065 19.4739 16.1318 18.309L19.9764 22.1528C20.2076 22.3843 20.5112 22.5 20.8145 22.5C21.1178 22.5 21.4214 22.3843 21.6527 22.1528C22.1158 21.6901 22.1158 20.9395 21.6527 20.4768ZM6.25203 15.8574C3.74217 13.3481 3.74246 9.26495 6.25203 6.75533C7.46789 5.54002 9.08459 4.87044 10.804 4.87044C12.5238 4.87044 14.1402 5.54002 15.3561 6.75533C16.5719 7.97093 17.2416 9.5873 17.2416 11.3064C17.2416 13.0258 16.5719 14.6418 15.3561 15.8574C14.1402 17.073 12.5238 17.7426 10.804 17.7426C9.08459 17.7426 7.46789 17.073 6.25203 15.8574Z" fill="#3B3A39"/>
</svg>
