<?xml version="1.0" encoding="UTF-8"?>
<svg width="24" height="24" viewBox="0 0 24 24" fill="none" xmlns="http://www.w3.org/2000/svg">
<path fill-rule="evenodd" clip-rule="evenodd" d="M14.6644 6.4939V5.99976C14.6644 5.29251 14.3835 4.61423 13.8834 4.11414C13.3833 3.61404 12.705 3.33309 11.9977 3.33309C11.2905 3.33309 10.6122 3.61404 10.1121 4.11414C9.61203 4.61423 9.33107 5.29251 9.33107 5.99976V6.4939H14.6644ZM7.99774 6.4939V5.99976C7.99774 4.93889 8.41917 3.92147 9.16931 3.17133C9.91946 2.42118 10.9369 1.99976 11.9977 1.99976C13.0586 1.99976 14.076 2.42118 14.8262 3.17133C15.5763 3.92147 15.9977 4.93889 15.9977 5.99976V6.4939H17.3933C17.9091 6.49341 18.4051 6.69219 18.7777 7.04872C19.1504 7.40525 19.371 7.89196 19.3933 8.40723L19.9333 19.9006C19.9469 20.1715 19.9052 20.4424 19.8108 20.6967C19.7163 20.951 19.5712 21.1834 19.3841 21.3799C19.197 21.5763 18.9719 21.7326 18.7225 21.8393C18.4731 21.9461 18.2046 22.0009 17.9333 22.0006H6.06665C5.79537 22.0009 5.52687 21.9461 5.27746 21.8393C5.02805 21.7326 4.80296 21.5763 4.61587 21.3799C4.42879 21.1834 4.28362 20.951 4.1892 20.6967C4.09478 20.4424 4.05309 20.1715 4.06665 19.9006L4.60665 8.40723C4.629 7.89196 4.84954 7.40525 5.22222 7.04872C5.59489 6.69219 6.0909 6.49341 6.60665 6.4939H7.99774ZM6.60665 7.8339C6.42984 7.8339 6.26027 7.90414 6.13525 8.02916C6.01022 8.15418 5.93998 8.32375 5.93998 8.50056L5.39998 19.9672C5.39546 20.0575 5.40936 20.1478 5.44083 20.2326C5.47231 20.3174 5.5207 20.3949 5.58306 20.4603C5.64542 20.5258 5.72045 20.5779 5.80359 20.6135C5.88672 20.6491 5.97622 20.6673 6.06665 20.6672H17.9333C18.0237 20.6673 18.1132 20.6491 18.1964 20.6135C18.2795 20.5779 18.3545 20.5258 18.4169 20.4603C18.4793 20.3949 18.5277 20.3174 18.5591 20.2326C18.5906 20.1478 18.6045 20.0575 18.6 19.9672L18.06 8.4739C18.06 8.29709 17.9897 8.12752 17.8647 8.00249C17.7397 7.87747 17.5701 7.80723 17.3933 7.80723L6.60665 7.8339ZM12.0023 13.2122C11.0771 13.2134 10.1802 12.8937 9.46425 12.3078C8.74828 11.7219 8.25755 10.906 8.0756 9.99891C8.0611 9.90337 8.06755 9.80581 8.09449 9.713C8.12144 9.62019 8.16824 9.53435 8.23165 9.46142C8.29506 9.38849 8.37358 9.33022 8.46175 9.29065C8.54992 9.25108 8.64563 9.23115 8.74227 9.23225C8.90109 9.22994 9.05552 9.28441 9.17774 9.38586C9.29996 9.4873 9.38195 9.62905 9.40894 9.78558C9.53449 10.3849 9.86245 10.9227 10.3377 11.3087C10.813 11.6947 11.4066 11.9054 12.0189 11.9054C12.6312 11.9054 13.2249 11.6947 13.7001 11.3087C14.1754 10.9227 14.5034 10.3849 14.6289 9.78558C14.6559 9.62905 14.7379 9.4873 14.8601 9.38586C14.9824 9.28441 15.1368 9.22994 15.2956 9.23225C15.3922 9.23115 15.488 9.25108 15.5761 9.29065C15.6643 9.33022 15.7428 9.38849 15.8062 9.46142C15.8696 9.53435 15.9164 9.62019 15.9434 9.713C15.9703 9.80581 15.9768 9.90337 15.9623 9.99891C15.7792 10.9116 15.2836 11.7319 14.5608 12.3185C13.8379 12.905 12.9331 13.2211 12.0023 13.2122Z" fill="#605E5C"/>
</svg>
