<svg width="24" height="24" viewBox="0 0 24 24" fill="none" xmlns="http://www.w3.org/2000/svg">
<path fill-rule="evenodd" clip-rule="evenodd" d="M1.5 5.79541C1.5 5.3812 1.83579 5.04541 2.25 5.04541H21.75C22.1642 5.04541 22.5 5.3812 22.5 5.79541V15.5454C22.5 15.9596 22.1642 16.2954 21.75 16.2954C21.3358 16.2954 21 15.9596 21 15.5454V6.54541H3V13.909H8.45455C8.86876 13.909 9.20455 14.2448 9.20455 14.659C9.20455 15.0733 8.86876 15.409 8.45455 15.409H2.25C1.83579 15.409 1.5 15.0733 1.5 14.659V5.79541Z" fill="#6B6565"/>
<path fill-rule="evenodd" clip-rule="evenodd" d="M14.7964 11.9998C14.7964 9.62761 16.7197 7.70435 19.0918 7.70435C19.5061 7.70435 19.8418 8.04013 19.8418 8.45435V15.1021C19.8418 19.1876 16.5296 22.4998 12.4441 22.4998C8.35858 22.4998 5.04639 19.1876 5.04639 15.1021V14.6589C5.04639 14.2447 5.38217 13.9089 5.79639 13.9089C6.2106 13.9089 6.54639 14.2447 6.54639 14.6589V15.1021C6.54639 18.3592 9.18701 20.9998 12.4441 20.9998C15.7012 20.9998 18.3418 18.3592 18.3418 15.1021V9.30612C17.1622 9.63391 16.2964 10.7158 16.2964 11.9998V13.7725C16.2964 14.1867 15.9606 14.5225 15.5464 14.5225C14.0026 14.5225 12.7509 15.7742 12.7509 17.318C12.7509 17.7322 12.4151 18.068 12.0009 18.068C11.5867 18.068 11.2509 17.7322 11.2509 17.318C11.2509 15.2016 12.7817 13.4426 14.7964 13.0878V11.9998Z" fill="#6B6565"/>
<path fill-rule="evenodd" clip-rule="evenodd" d="M12.0016 10.0909C11.9263 10.0909 11.8652 10.152 11.8652 10.2273C11.8652 10.3026 11.9263 10.3637 12.0016 10.3637C12.0769 10.3637 12.138 10.3026 12.138 10.2273C12.138 10.152 12.0769 10.0909 12.0016 10.0909ZM10.3652 10.2273C10.3652 9.32357 11.0979 8.59094 12.0016 8.59094C12.9053 8.59094 13.638 9.32357 13.638 10.2273C13.638 11.131 12.9053 11.8637 12.0016 11.8637C11.0979 11.8637 10.3652 11.131 10.3652 10.2273Z" fill="#6B6565"/>
<path d="M12.0016 11.1137C12.4911 11.1137 12.888 10.7168 12.888 10.2273C12.888 9.73778 12.4911 9.34094 12.0016 9.34094C11.5121 9.34094 11.1152 9.73778 11.1152 10.2273C11.1152 10.7168 11.5121 11.1137 12.0016 11.1137Z" fill="#6B6565"/>
<path fill-rule="evenodd" clip-rule="evenodd" d="M5.04639 4.90909C5.04639 3.02617 6.57256 1.5 8.45548 1.5H15.5464C17.4293 1.5 18.9555 3.02617 18.9555 4.90909V5.79545C18.9555 6.20967 18.6197 6.54545 18.2055 6.54545C17.7913 6.54545 17.4555 6.20967 17.4555 5.79545V4.90909C17.4555 3.8546 16.6009 3 15.5464 3H8.45548C7.40099 3 6.54639 3.8546 6.54639 4.90909V5.79545C6.54639 6.20967 6.2106 6.54545 5.79639 6.54545C5.38217 6.54545 5.04639 6.20967 5.04639 5.79545V4.90909Z" fill="#6B6565"/>
</svg>
