<svg width="50" height="20" viewBox="0 0 50 20" fill="none" xmlns="http://www.w3.org/2000/svg">
<path fill-rule="evenodd" clip-rule="evenodd" d="M47.9976 10.2786H48.575V11.6584H49.1411V10.2786H49.7185V9.82617H47.9976V10.2786Z" fill="#225E63"/>
<mask id="mask0_149_3631" style="mask-type:alpha" maskUnits="userSpaceOnUse" x="0" y="0" width="27" height="20">
<path fill-rule="evenodd" clip-rule="evenodd" d="M0 0.0441895H26.7568V19.1764H0V0.0441895Z" fill="white"/>
</mask>
<g mask="url(#mask0_149_3631)">
<path fill-rule="evenodd" clip-rule="evenodd" d="M7.46867 11.29C7.44417 11.2886 7.42476 11.307 7.42476 11.3313V13.5437C7.42476 13.5677 7.40521 13.5876 7.38102 13.5876H4.5368C4.51262 13.5876 4.49312 13.5679 4.49312 13.5437L4.49329 5.99013C4.49329 5.96612 4.51315 5.94618 4.53755 5.94618C4.53755 5.94618 8.20362 5.94706 8.22246 5.94618C9.16024 5.90213 12.0086 6.16608 12.0086 8.5708C12.0086 11.6184 7.46867 11.29 7.46867 11.29ZM22.8106 1.85474C23.796 1.85474 24.5948 2.60818 24.5948 3.53757C24.5948 4.46705 23.796 5.22045 22.8106 5.22045C21.8251 5.22045 21.0264 4.46696 21.0264 3.53757C21.0264 2.60818 21.8251 1.85474 22.8106 1.85474ZM16.995 13.6473C12.5916 13.3688 12.5916 10.2281 12.5916 10.1365V9.39022C12.5916 9.24993 12.7491 6.17804 16.9951 5.83757C17.2774 5.79794 18.2944 5.80306 18.3568 5.83757C19.5255 5.90708 19.9084 6.15663 19.9084 6.15663C19.9302 6.16828 19.9469 6.19776 19.9469 6.22208V8.15341C19.9469 8.17746 19.93 8.18753 19.9091 8.17521C19.9091 8.17521 19.2261 7.75474 18.3757 7.63991H17.6547C15.7294 7.80266 15.5966 9.34512 15.5966 9.34512C15.5932 9.36904 15.591 9.40822 15.591 9.4325V9.98408C15.5913 10.0132 15.5929 10.0422 15.5959 10.0712C15.5959 10.0712 15.6895 11.511 17.6546 11.8415C17.7963 11.865 17.9827 11.8857 18.3756 11.8415C19.7617 11.7064 20.0768 11.453 20.0768 11.453C20.0979 11.4402 20.1141 11.4488 20.1141 11.4731V11.7904C20.5226 11.8591 20.9467 12.0516 21.3505 12.3251V5.95037H24.2702V10.7033C25.2994 9.22084 26.3921 7.71043 26.7568 7.20831L23.5411 0.0441895L0 1.38086L6.52189 19.1764L19.0768 15.2194C18.7244 14.7113 18.4706 14.1608 18.3767 13.6471C18.3699 13.6471 18.3634 13.6473 18.3566 13.6473C18.268 13.6473 17.4252 13.68 16.995 13.6473Z" fill="#225E63"/>
</g>
<path fill-rule="evenodd" clip-rule="evenodd" d="M27.3154 12.6228L28.9553 12.106L28.4243 10.9231C28.0296 11.4106 27.6407 12.0407 27.3154 12.6228Z" fill="#225E63"/>
<path fill-rule="evenodd" clip-rule="evenodd" d="M8.07001 7.60693H7.37402V9.60023L8.15112 9.60045C8.15112 9.60045 9.03042 9.56073 9.16083 8.75049C9.17486 8.73191 9.17932 8.39489 9.16092 8.34105C9.0821 7.65248 8.07001 7.60693 8.07001 7.60693Z" fill="#225E63"/>
<path fill-rule="evenodd" clip-rule="evenodd" d="M31.3653 5.12196C28.8012 5.05205 26.1571 9.24314 24.2702 12.3714C24.0139 12.7963 23.7716 13.2015 23.5453 13.5739C23.3087 13.9632 23.0897 14.3166 22.8906 14.6186C22.8683 14.6485 22.745 14.6186 22.745 14.6186C22.745 14.6186 22.3073 14.1025 21.7311 13.5739H21.3505V13.2423C21.0739 13.0147 20.7823 12.8054 20.5021 12.6593C20.4804 12.648 20.3618 12.6119 20.2387 12.621C20.2184 12.621 20.1734 12.6269 20.1141 12.6395C19.9327 12.6777 19.6155 12.7774 19.4452 12.957C19.2237 13.1908 19.1898 13.3398 19.186 13.5794C19.1852 13.6286 19.1856 13.6814 19.186 13.74C19.1862 13.7679 19.2041 13.8808 19.2372 13.9387C19.4921 14.3844 20.6566 15.9855 21.6107 16.8688C21.7584 16.9738 21.983 17.2546 22.8906 17.2546C23.1279 17.2546 23.3096 17.2546 23.6096 17.1215C24.6462 16.5764 28.1355 8.05483 31.8159 5.4337C31.8383 5.41693 31.8684 5.39243 31.8858 5.36754C31.91 5.33299 31.9109 5.29773 31.9109 5.29773C31.9109 5.29773 31.9109 5.12196 31.3653 5.12196Z" fill="#3AB55D"/>
<path fill-rule="evenodd" clip-rule="evenodd" d="M21.3506 13.5737H21.7312C21.6095 13.4622 21.4818 13.3502 21.3506 13.2422V13.5737Z" fill="#3AB55D"/>
<path fill-rule="evenodd" clip-rule="evenodd" d="M34.0116 11.1734C33.9562 11.2342 33.8743 11.2646 33.7661 11.2646C33.6544 11.2646 33.5677 11.227 33.5061 11.1517C33.4444 11.0764 33.4136 10.9372 33.4136 10.7341C33.4136 10.5702 33.4394 10.45 33.4911 10.3734C33.5594 10.2702 33.6577 10.2186 33.786 10.2186C33.8427 10.2186 33.8939 10.2303 33.9397 10.2536C33.9856 10.2769 34.0243 10.3102 34.056 10.3536C34.0751 10.3794 34.0935 10.4203 34.111 10.476L34.6109 10.3648C34.5467 10.1715 34.4486 10.0282 34.3166 9.9349C34.1845 9.84157 34.0031 9.79492 33.7723 9.79492C33.4773 9.79492 33.2493 9.8763 33.088 10.0391C32.9268 10.2019 32.8462 10.4348 32.8462 10.7379C32.8462 10.9652 32.892 11.1517 32.9837 11.2974C33.0753 11.4432 33.1843 11.5449 33.3105 11.6028C33.4367 11.6606 33.5994 11.6896 33.7985 11.6896C33.9627 11.6896 34.0979 11.6658 34.2041 11.6184C34.3104 11.5709 34.3992 11.5004 34.4709 11.4071C34.5426 11.3139 34.5951 11.1976 34.6284 11.0585L34.1322 10.9085C34.1072 11.0243 34.067 11.1126 34.0116 11.1734Z" fill="#225E63"/>
<path fill-rule="evenodd" clip-rule="evenodd" d="M36.0646 11.1472C35.9979 11.2264 35.9038 11.266 35.7822 11.266C35.6638 11.266 35.5703 11.2255 35.5016 11.1447C35.4329 11.0639 35.3984 10.931 35.3984 10.7461C35.3984 10.5594 35.433 10.4257 35.5022 10.3449C35.5713 10.2641 35.663 10.2236 35.7771 10.2236C35.8963 10.2236 35.9906 10.2634 36.0602 10.343C36.1298 10.4226 36.1646 10.5486 36.1646 10.7211C36.1646 10.926 36.1313 11.0681 36.0646 11.1472ZM35.7786 9.79492C35.4812 9.79492 35.2492 9.87824 35.0825 10.0449C34.9158 10.2116 34.8325 10.4444 34.8325 10.7436C34.8325 10.9577 34.8746 11.136 34.9588 11.2785C35.0429 11.4209 35.1527 11.5251 35.2881 11.5909C35.4235 11.6567 35.5945 11.6896 35.8011 11.6896C36.0044 11.6896 36.1742 11.6515 36.3104 11.5753C36.4466 11.499 36.5508 11.3924 36.6229 11.2553C36.6949 11.1183 36.731 10.9427 36.731 10.7285C36.731 10.4336 36.6485 10.2042 36.4835 10.0406C36.3185 9.87678 36.0836 9.79492 35.7786 9.79492Z" fill="#225E63"/>
<path fill-rule="evenodd" clip-rule="evenodd" d="M38.061 10.941L37.7739 9.82617H37.0293V11.6584H37.493V10.2611L37.8496 11.6584H38.2693L38.6265 10.2611V11.6584H39.0902V9.82617H38.3461L38.061 10.941Z" fill="#225E63"/>
<path fill-rule="evenodd" clip-rule="evenodd" d="M40.3867 10.5505C40.3426 10.5883 40.2659 10.6073 40.1568 10.6073H40.0181V10.1986H40.1793C40.2851 10.1986 40.3572 10.2186 40.3955 10.2586C40.4338 10.2986 40.453 10.3473 40.453 10.4048C40.453 10.464 40.4309 10.5126 40.3867 10.5505ZM40.3903 9.82617H39.4492V11.6583H40.0179V10.9785H40.3278C40.5561 10.9785 40.7259 10.9264 40.8371 10.8222C40.9483 10.7181 41.0039 10.5735 41.0039 10.3886C41.0039 10.2086 40.9529 10.0699 40.8509 9.97238C40.7488 9.87489 40.5952 9.82617 40.3903 9.82617Z" fill="#225E63"/>
<path fill-rule="evenodd" clip-rule="evenodd" d="M41.866 9.82617H41.2998V11.6584H42.7495V11.2072H41.866V9.82617Z" fill="#225E63"/>
<mask id="mask1_149_3631" style="mask-type:alpha" maskUnits="userSpaceOnUse" x="0" y="0" width="50" height="20">
<path fill-rule="evenodd" clip-rule="evenodd" d="M0 19.1764H49.9894V0.0441895H0V19.1764Z" fill="white"/>
</mask>
<g mask="url(#mask1_149_3631)">
<path fill-rule="evenodd" clip-rule="evenodd" d="M43.0298 11.6584H43.5972V9.82617H43.0298V11.6584Z" fill="#225E63"/>
<path fill-rule="evenodd" clip-rule="evenodd" d="M44.6099 10.9598L44.81 10.3011L45.0122 10.9598H44.6099ZM44.508 9.82617L43.8193 11.6584H44.3974L44.4867 11.356H45.1294L45.2211 11.6584H45.814L45.1255 9.82617H44.508Z" fill="#225E63"/>
<path fill-rule="evenodd" clip-rule="evenodd" d="M47.2166 10.8399L46.5267 9.82617H45.998V11.6584H46.5304V10.6524L47.2166 11.6584H47.7503V9.82617H47.2166V10.8399Z" fill="#225E63"/>
<path fill-rule="evenodd" clip-rule="evenodd" d="M36.2669 6.86771C36.1751 7.07976 36.0482 7.22826 35.8861 7.31334C35.7241 7.39838 35.4513 7.44093 35.0678 7.44093H34.6182V4.19604H35.0759C35.5512 4.19604 35.8915 4.3122 36.0968 4.54441C36.302 4.77672 36.4047 5.20747 36.4047 5.83673C36.4047 6.31206 36.3587 6.65571 36.2669 6.86771ZM38.1022 4.64975C38.005 4.28788 37.8483 3.97058 37.6323 3.69776C37.4162 3.42499 37.1428 3.21568 36.812 3.06983C36.4811 2.92402 36.047 2.85107 35.5095 2.85107H32.7832V8.78995H35.5095C35.8363 8.78995 36.2009 8.73594 36.6033 8.62791C36.8977 8.54957 37.1731 8.39229 37.4298 8.15593C37.6863 7.91965 37.8868 7.62663 38.0313 7.27685C38.1758 6.92716 38.2481 6.43492 38.2481 5.80028C38.2481 5.39516 38.1994 5.01167 38.1022 4.64975Z" fill="#225E63"/>
<path fill-rule="evenodd" clip-rule="evenodd" d="M43.8234 7.91079C44.034 7.58943 44.1394 7.23833 44.1394 6.85752C44.1394 6.53343 44.0604 6.2404 43.9024 5.97844C43.7444 5.71648 43.4918 5.49706 43.1448 5.32014C42.7978 5.14327 42.2232 4.96838 41.4211 4.79552C41.0971 4.72804 40.8918 4.65514 40.8053 4.57676C40.7162 4.50117 40.6717 4.41613 40.6717 4.32156C40.6717 4.1919 40.7257 4.08188 40.8337 3.99142C40.9417 3.90095 41.1024 3.85567 41.3158 3.85567C41.5751 3.85567 41.7782 3.91644 41.9255 4.03797C42.0726 4.15951 42.1692 4.35395 42.2151 4.62134L43.9449 4.52006C43.8693 3.9043 43.6323 3.45532 43.234 3.1731C42.8355 2.89089 42.257 2.74976 41.4981 2.74976C40.8796 2.74976 40.3928 2.82743 40.0377 2.98268C39.6825 3.13802 39.4165 3.35134 39.2396 3.62275C39.0627 3.89415 38.9743 4.1825 38.9743 4.48766C38.9743 4.95218 39.1471 5.33431 39.4928 5.63409C39.8358 5.93387 40.4097 6.17425 41.2145 6.35518C41.7061 6.46322 42.0192 6.578 42.1544 6.69954C42.2894 6.82107 42.3569 6.9588 42.3569 7.11273C42.3569 7.27478 42.286 7.41723 42.1442 7.54014C42.0024 7.66304 41.8005 7.72442 41.5386 7.72442C41.1875 7.72442 40.9174 7.6043 40.7284 7.36388C40.6122 7.21538 40.5353 6.99931 40.4975 6.71573L38.7515 6.82509C38.8027 7.42465 39.0229 7.91891 39.4118 8.30779C39.8007 8.69671 40.5001 8.89115 41.5102 8.89115C42.0855 8.89115 42.5621 8.8081 42.9403 8.64199C43.3184 8.47593 43.6128 8.23219 43.8234 7.91079Z" fill="#225E63"/>
<path fill-rule="evenodd" clip-rule="evenodd" d="M49.7525 5.97844C49.5945 5.71648 49.3419 5.49706 48.9949 5.32014C48.6479 5.14327 48.0733 4.96838 47.2712 4.79552C46.9471 4.72804 46.7419 4.65514 46.6554 4.57676C46.5663 4.50117 46.5218 4.41613 46.5218 4.32156C46.5218 4.19194 46.5758 4.08188 46.6838 3.99142C46.7918 3.90095 46.9525 3.85567 47.1659 3.85567C47.4252 3.85567 47.6283 3.91644 47.7756 4.03797C47.9227 4.15951 48.0193 4.35395 48.0652 4.62134L49.795 4.52006C49.7194 3.9043 49.4824 3.45532 49.0841 3.1731C48.6856 2.89089 48.1071 2.74976 47.3482 2.74976C46.7297 2.74976 46.2429 2.82743 45.8878 2.98268C45.5326 3.13802 45.2666 3.35134 45.0897 3.62275C44.9128 3.8942 44.8244 4.1825 44.8244 4.48766C44.8244 4.95218 44.9971 5.33431 45.3429 5.63409C45.6859 5.93387 46.2598 6.17425 47.0646 6.35518C47.5561 6.46322 47.8693 6.578 48.0045 6.69954C48.1395 6.82107 48.207 6.9588 48.207 7.11273C48.207 7.27478 48.1361 7.41728 47.9943 7.54014C47.8525 7.66304 47.6506 7.72442 47.3887 7.72442C47.0376 7.72442 46.7674 7.6043 46.5785 7.36392C46.4623 7.21538 46.3854 6.99931 46.3476 6.71573L44.6016 6.82513C44.6528 7.42465 44.873 7.91891 45.2619 8.30779C45.6508 8.69671 46.3502 8.89115 47.3603 8.89115C47.9356 8.89115 48.4122 8.8081 48.7904 8.64199C49.1685 8.47593 49.4629 8.23219 49.6735 7.91079C49.8841 7.58943 49.9895 7.23833 49.9895 6.85752C49.9895 6.53343 49.9105 6.24044 49.7525 5.97844Z" fill="#225E63"/>
</g>
</svg>
