<svg width="16" height="19" viewBox="0 0 16 19" fill="none" xmlns="http://www.w3.org/2000/svg">
<path fill-rule="evenodd" clip-rule="evenodd" d="M15.5433 3.07059L8.28404 0.056625C8.10219 -0.0188565 7.89778 -0.0188935 7.71596 0.056625L0.456704 3.07059C0.180222 3.1854 0 3.45533 0 3.7547V7.41859C0 12.4635 3.04922 17.0016 7.72007 18.908C7.89948 18.9813 8.10048 18.9813 8.27993 18.908C12.9507 17.0016 16 12.4636 16 7.41859V3.7547C16 3.45533 15.8198 3.1854 15.5433 3.07059ZM14.5185 7.41859C14.5185 11.7073 12 15.6553 8 17.4176C4.10689 15.7024 1.48148 11.8235 1.48148 7.41859V4.24922L8 1.54277L14.5185 4.24922V7.41859ZM10.3649 6.73161L7.18102 9.91542L5.63464 8.36905C5.34539 8.07975 4.87639 8.07979 4.58709 8.36905C4.29779 8.65831 4.29779 9.12731 4.58709 9.41661L6.65724 11.4868C6.94646 11.776 7.41546 11.7761 7.70479 11.4868L11.4124 7.77916C11.7017 7.4899 11.7017 7.0209 11.4124 6.73161C11.1231 6.44231 10.6541 6.44235 10.3649 6.73161Z" fill="#41B983"/>
</svg>
