<svg width="50" height="19" viewBox="0 0 50 19" fill="none" xmlns="http://www.w3.org/2000/svg">
<path fill-rule="evenodd" clip-rule="evenodd" d="M13.5649 17.4419C16.5615 15.7588 17.971 13.0871 18.0028 9.65673C17.7589 9.77788 17.5444 9.95083 17.3744 10.1635C17.3192 10.2621 17.2201 10.3284 17.1078 10.3418C16.9955 10.3551 16.8837 10.314 16.8068 10.2311C16.7774 10.2066 16.749 10.1819 16.7208 10.1574C16.6608 10.1053 16.6018 10.054 16.5365 10.0081C15.5095 9.27498 14.4447 8.58646 13.3865 7.90403C13.1541 7.77339 13.0194 7.51903 13.0419 7.25336C13.0511 6.01475 13.0499 4.77995 13.0488 3.54581V3.54559V3.54537C13.0484 3.13426 13.048 2.72322 13.048 2.31214L13.048 2.29627C13.0483 2.13805 13.0484 2.01014 12.8568 1.92971C10.6689 0.93794 8.16187 0.926387 5.96492 1.89795C3.01545 3.07439 0.988925 5.82243 0.736543 8.98782C0.400647 11.5527 1.29384 14.1259 3.14668 15.9311C5.85458 18.7787 10.1597 19.403 13.5649 17.4419ZM12.9203 14.5601H9.50952L9.50681 14.5534H6.12844C5.65546 14.5534 5.58789 14.4831 5.58789 14.0243V9.30606C5.58789 8.81484 5.66425 8.72565 6.16154 8.73849C6.3906 8.74525 6.41019 8.64322 6.41627 8.45809C6.38208 7.89667 6.39904 7.33332 6.46695 6.77498C6.76165 5.30363 8.06411 4.25195 9.56452 4.27382C11.0649 4.29568 12.3362 5.38486 12.5879 6.86417C12.6485 7.39324 12.6614 7.9267 12.6264 8.45809C12.6203 8.68782 12.6967 8.74525 12.9136 8.74525C13.3663 8.73917 13.4494 8.83511 13.4494 9.2939C13.4534 10.8795 13.4534 12.4628 13.4494 14.0439C13.4433 14.4838 13.3669 14.5601 12.9203 14.5601ZM9.50323 13.4574C8.91675 13.4574 8.90999 13.4574 8.97418 12.8581C8.98364 12.7625 8.99479 12.6684 9.00594 12.5743L9.00595 12.5741C9.0171 12.4801 9.02824 12.3861 9.03769 12.2905C9.11869 11.9875 9.03657 11.6641 8.8208 11.4364C8.55503 11.0702 8.62835 10.5591 8.98634 10.2824C9.33466 10.0041 9.83897 10.0431 10.1404 10.3716C10.4585 10.6854 10.4669 11.1961 10.1593 11.5202C9.99675 11.6545 9.92711 11.8711 9.98094 12.075C10.0136 12.2619 10.0305 12.4523 10.0475 12.6426C10.0635 12.8222 10.0794 13.0018 10.1086 13.1783C10.1404 13.4013 10.0958 13.4973 9.85999 13.4655C9.74139 13.4548 9.62222 13.4518 9.50323 13.4567V13.4574ZM9.04759 9.00597C9.20983 9.00635 9.3723 9.00673 9.53519 9.00673V9.00944H11.5406C11.5449 9.00944 11.5492 9.00944 11.5535 9.00945C11.6823 9.00966 11.7891 9.00983 11.7832 8.81822C11.8055 8.18229 11.7863 7.54557 11.7257 6.91214C11.5606 5.83838 10.6444 5.04072 9.55816 5.02498C8.45396 5.05139 7.52984 5.87045 7.371 6.96349C7.31661 7.32526 7.32152 7.68677 7.32643 8.04834C7.32958 8.27969 7.33272 8.51107 7.32033 8.74255C7.31019 8.95538 7.38046 9.0189 7.5906 9.01281C8.07788 9.0037 8.56174 9.00483 9.04759 9.00597Z" fill="#6C7A87"/>
<path fill-rule="evenodd" clip-rule="evenodd" d="M16.5792 9.64723C16.7995 9.79611 16.9102 9.87089 17.0181 9.87089C17.1293 9.87089 17.2379 9.78887 17.4525 9.62678L17.4525 9.62678L17.462 9.61954C18.3681 8.9263 19.3289 8.32224 20.4006 7.66008C20.5618 7.58467 20.6587 7.41648 20.6431 7.23913C20.6346 5.29229 20.6346 3.34747 20.6431 1.40468C20.6431 1.21413 20.6073 1.11886 20.3945 1.05468L19.61 0.829C18.7742 0.591838 17.9141 0.346567 17.085 0.0344051C17.0278 0.0110096 16.9665 -0.000927484 16.9046 -0.000730011C16.8487 -0.000796793 16.7931 0.00880385 16.7404 0.0276484C15.9902 0.293716 15.2263 0.519267 14.4519 0.703324L14.3327 0.734073L14.3327 0.734075C14.0872 0.797393 13.8414 0.860769 13.5972 0.927648C13.4195 0.979 13.3681 1.04589 13.3681 1.22765C13.3749 1.97292 13.3749 2.72157 13.3749 3.50535V5.04116C13.3762 5.779 13.3769 6.51413 13.3681 7.24859C13.3543 7.41624 13.4421 7.57589 13.5911 7.654L16.5783 9.64657L16.5792 9.64723ZM14.0852 4.77365C14.1222 4.76632 14.1597 4.76203 14.1974 4.76082C14.2882 4.76102 14.3394 4.80299 14.3913 4.92095C14.4035 4.95 14.4136 4.98109 14.423 5.01149C14.4365 5.05469 14.4539 5.09654 14.4751 5.13649C14.564 5.26361 14.7128 5.33508 14.8676 5.325C15.0262 5.33633 15.18 5.26792 15.2778 5.14257C15.3779 4.99833 15.3483 4.80106 15.2102 4.69257C15.1823 4.67761 15.1537 4.66408 15.1244 4.65203C15.0055 4.60203 14.9008 4.5669 14.792 4.53041L14.7861 4.52844L14.7861 4.52844C14.6794 4.49265 14.5758 4.45791 14.4676 4.41014C14.1506 4.27881 13.9455 3.9675 13.9501 3.62433C13.9503 3.57333 13.955 3.52245 13.9643 3.4723C14.0494 3.02095 14.3082 2.82027 14.8312 2.80136C15.2492 2.75441 15.6358 3.02901 15.7291 3.43919C15.7482 3.48686 15.7596 3.53727 15.7629 3.58852C15.766 3.61148 15.7594 3.63468 15.7449 3.6527C15.7303 3.67071 15.709 3.68195 15.6859 3.68379L15.6116 3.70068C15.5561 3.7156 15.4993 3.72511 15.442 3.72906C15.419 3.72909 15.3962 3.72544 15.3744 3.71825C15.3049 3.69394 15.2508 3.63839 15.2285 3.56825C15.1718 3.41371 15.0212 3.31403 14.8568 3.3223C14.7836 3.32328 14.711 3.33512 14.6413 3.35744C14.5307 3.38466 14.4523 3.48279 14.4501 3.59663C14.4514 3.69558 14.5114 3.78429 14.6028 3.8223C14.7156 3.86892 14.8305 3.90811 14.9453 3.9473C15.0318 3.97636 15.1176 4.00609 15.2028 4.03852C15.2911 4.07238 15.3744 4.11783 15.4508 4.17365C15.7691 4.39274 15.9131 4.78999 15.8089 5.16217C15.7203 5.66757 15.4487 5.87027 14.8717 5.87027C14.3907 5.89696 13.9724 5.54361 13.9183 5.06487L13.8967 4.96352L13.8964 4.96256C13.8789 4.90328 13.8575 4.83084 13.9791 4.78581C14.0148 4.7846 14.0502 4.78053 14.0852 4.77365ZM14.1974 4.76082L14.1974 4.76082H14.1967L14.1974 4.76082ZM16.1828 4.78104L16.1288 4.80063C16.1058 4.82699 16.1119 4.87766 16.1173 4.92158C16.1205 5.41097 16.4948 5.81796 16.9822 5.86212C17.0344 5.86572 17.0849 5.86753 17.1335 5.86753C17.5578 5.92811 17.952 5.63631 18.018 5.2128C18.1013 4.97052 18.0803 4.70454 17.96 4.47833C17.8397 4.25212 17.631 4.08598 17.3835 4.01955L17.1754 3.94658L17.1502 3.93791L17.1502 3.9379C17.0373 3.89904 16.9261 3.86078 16.8166 3.8155C16.7279 3.78114 16.6689 3.69644 16.6673 3.60131C16.6717 3.49031 16.7435 3.39329 16.8484 3.35672C16.9094 3.33005 16.975 3.31537 17.0416 3.31347C17.0949 3.3134 17.1477 3.32278 17.1977 3.34117C17.2678 3.36703 17.3304 3.40972 17.3801 3.4655C17.4087 3.50057 17.4334 3.53863 17.4538 3.57901C17.4642 3.60005 17.4764 3.62017 17.4903 3.63915C17.5268 3.69911 17.5917 3.73592 17.6619 3.73645C17.7079 3.73407 17.7534 3.72543 17.797 3.71077L17.8984 3.6878C17.9332 3.67961 17.963 3.65734 17.9808 3.62631C17.9955 3.57479 17.9897 3.51959 17.9646 3.47226L17.9443 3.40469C17.8519 3.01481 17.4812 2.7567 17.0835 2.80536C16.6639 2.75187 16.2766 3.03845 16.2051 3.45536C16.1196 3.87909 16.3629 4.3002 16.7727 4.4378C16.8836 4.48051 16.997 4.51721 17.111 4.55414L17.1315 4.56077L17.2828 4.61009C17.3296 4.62661 17.3748 4.64718 17.418 4.67158C17.5273 4.7327 17.5859 4.85638 17.5639 4.97969C17.542 5.17912 17.3809 5.33453 17.1808 5.34928L17.1078 5.35401C16.9065 5.35613 16.7244 5.23466 16.6491 5.04793C16.6321 5.00688 16.6181 4.96465 16.6072 4.92158C16.6024 4.89835 16.5952 4.87569 16.5855 4.85401C16.5694 4.79216 16.5143 4.7484 16.4504 4.74658C16.4163 4.74837 16.3825 4.75427 16.3497 4.76415C16.3162 4.77443 16.2814 4.78056 16.2464 4.78239L16.1828 4.78104ZM18.508 2.90603C18.5419 2.87836 18.5854 2.86524 18.6289 2.86954L18.6256 2.87562H18.7006H18.7877C18.8375 2.86932 18.8878 2.88292 18.9276 2.91346C18.9619 2.9593 18.9767 3.01687 18.9688 3.07359V3.24657V4.08441C18.9735 4.42224 18.9756 4.75941 18.9688 5.10805C18.9647 5.23238 18.9789 5.32224 19.0614 5.35941C19.1056 5.36958 19.1512 5.37299 19.1965 5.36954H19.2242C19.2985 5.36211 19.3789 5.36211 19.4593 5.36211H19.6904H19.8492C19.9006 5.36211 19.9478 5.36143 20.0201 5.35805C20.0496 5.35702 20.079 5.36184 20.1066 5.37224C20.1964 5.39317 20.1911 5.45454 20.1844 5.53279L20.1843 5.53305L20.1803 5.60062C20.1803 5.73576 20.1681 5.81751 19.9958 5.81751C19.7728 5.80805 19.5499 5.80805 19.3276 5.80805C19.1053 5.80805 18.8837 5.81143 18.6451 5.81819C18.4897 5.81819 18.4783 5.73576 18.4783 5.60062V5.20535V4.754V4.33305V3.97359V3.61684C18.4783 3.43238 18.4762 3.24724 18.4674 3.04454C18.4621 2.99483 18.4767 2.94503 18.508 2.90603Z" fill="#6C7A87"/>
<path fill-rule="evenodd" clip-rule="evenodd" d="M25.6194 8.74461C25.2025 8.76166 24.7887 8.66695 24.4208 8.47028C23.952 8.20159 23.6501 7.71498 23.6174 7.17569C23.5985 7.04055 23.6363 7.01015 23.764 7.01015C23.7969 7.01095 23.8298 7.01054 23.8622 7.01013H23.8622H23.8622H23.8623C24.0746 7.00745 24.2647 7.00506 24.287 7.34799C24.3254 7.59413 24.4699 7.81102 24.6822 7.94123C25.2749 8.32459 26.036 8.32959 26.6336 7.95407C26.8687 7.81358 27.0061 7.55396 26.99 7.28056C26.974 7.00717 26.8072 6.76541 26.5572 6.65339C26.1903 6.48712 25.8018 6.37339 25.4032 6.31555C25.0805 6.25128 24.7661 6.15063 24.466 6.01555C24.0669 5.83616 23.7974 5.45347 23.7629 5.01728C23.7285 4.5811 23.9345 4.16081 24.3005 3.92096C24.9713 3.44434 25.8523 3.38279 26.5829 3.7615C27.0537 3.96495 27.3695 4.41643 27.3991 4.92839C27.4012 4.94244 27.4046 4.95839 27.4082 4.97516L27.4082 4.97516C27.4276 5.06484 27.4521 5.17812 27.291 5.15136C27.2281 5.14092 27.1645 5.15321 27.1041 5.16488C26.9807 5.1887 26.8705 5.20998 26.8066 5.03042C26.6973 4.6396 26.4174 4.31903 26.0449 4.15809C25.6724 3.99715 25.2471 4.01305 24.8876 4.20136C24.599 4.30101 24.3998 4.56599 24.3843 4.87096C24.3781 5.16776 24.5631 5.435 24.8431 5.5338C25.3255 5.72468 25.8284 5.85935 26.3417 5.93515C27.0881 6.00414 27.6398 6.66106 27.5789 7.40812C27.5193 7.9845 27.107 8.46279 26.5458 8.60677C26.394 8.65629 26.2382 8.69246 26.0802 8.71488C25.9286 8.73488 25.7758 8.74481 25.6228 8.74461H25.6194ZM47.5399 6.33052C47.6955 6.32945 47.8511 6.32839 48.0066 6.32839C48.2088 6.32839 48.4119 6.32683 48.6155 6.32526C48.9642 6.32258 49.3142 6.31989 49.664 6.32501C49.8748 6.33177 49.9255 6.2615 49.9066 6.07028C49.8916 5.77413 49.8489 5.48005 49.7789 5.1919C49.6298 4.432 49.0608 3.82343 48.3127 3.62366C47.5513 3.36868 46.7112 3.59192 46.1768 4.19123C45.6179 4.85065 45.3796 5.72375 45.5262 6.57569C45.6599 7.92096 46.4181 8.81082 47.9045 8.74326C48.8304 8.73413 49.6267 8.0858 49.8235 7.18109C49.8272 7.16282 49.8409 7.14718 49.8543 7.13188C49.8874 7.094 49.9188 7.05822 49.7917 6.98988C49.5576 6.91482 49.3028 7.01296 49.1795 7.22569C49.038 7.68038 48.6796 8.03494 48.2235 8.17163C47.7296 8.31273 47.1981 8.21363 46.7882 7.90404C46.3783 7.59444 46.1377 7.1103 46.1383 6.59663C46.1262 6.38988 46.1579 6.31623 46.3809 6.32231C46.7688 6.33579 47.1547 6.33315 47.5399 6.33052ZM49.0773 5.80543H47.7064H46.3422C46.3283 5.80543 46.3137 5.80625 46.299 5.80707C46.213 5.8119 46.1238 5.81692 46.1509 5.6588C46.1396 5.09127 46.4375 4.56238 46.9288 4.27797C47.42 3.99356 48.027 3.99856 48.5135 4.29102C49.0001 4.58348 49.2892 5.11721 49.2685 5.68448C49.2779 5.82462 49.1999 5.81654 49.1257 5.80886C49.109 5.80713 49.0925 5.80543 49.0773 5.80543ZM30.6121 6.32836C30.4721 6.32836 30.3317 6.32874 30.1911 6.32912C29.7684 6.33026 29.3437 6.33141 28.9229 6.32228C28.7702 6.32228 28.7202 6.36688 28.7317 6.52026C28.7993 7.52161 29.529 8.5162 30.8418 8.16553C31.2978 8.026 31.6531 7.66683 31.7878 7.20944C31.9216 7.00626 32.1746 6.91749 32.406 6.99255C32.5122 7.06348 32.4861 7.0913 32.4583 7.12097C32.4461 7.13398 32.4336 7.14734 32.4317 7.16485C32.2604 8.05311 31.4992 8.70593 30.5952 8.73985C29.0844 8.80336 28.2425 8.04458 28.1148 6.48309C28.0381 5.8233 28.172 5.15616 28.4972 4.57701C28.9062 3.83751 29.7354 3.43439 30.5695 3.56958C31.3272 3.60066 31.9892 4.091 32.2398 4.80674C32.4058 5.22101 32.4973 5.66133 32.5101 6.10742C32.5229 6.29863 32.4466 6.33715 32.2743 6.33039C31.885 6.32426 31.4983 6.3257 31.1133 6.32713C30.9464 6.32775 30.7798 6.32836 30.6135 6.32836H30.6121ZM31.7275 5.80542H28.7451C28.6818 5.22712 28.9448 4.66149 29.4278 4.33722C29.9108 4.01294 30.5339 3.98363 31.0452 4.26115C31.5565 4.53867 31.8714 5.07711 31.8626 5.6588C31.8741 5.77366 31.8356 5.80542 31.7275 5.80542ZM41.4284 7.7788C40.983 8.5477 40.0757 8.92074 39.2181 8.68717C38.5749 8.61352 38.0805 8.08383 38.0512 7.43717C37.9713 6.55166 37.9884 5.66614 38.0055 4.78062C38.0116 4.46749 38.0176 4.15436 38.0194 3.84123C38.0194 3.64629 38.1486 3.669 38.2775 3.69164C38.3385 3.70236 38.3993 3.71306 38.4464 3.70069C38.5931 3.66217 38.6187 3.7838 38.6187 3.90339C38.6147 4.81735 38.6147 5.73132 38.6187 6.64528C38.6187 6.76015 38.6187 6.88109 38.6248 6.99596C38.6762 7.70339 38.937 8.06082 39.5032 8.19461C40.1189 8.37212 40.7755 8.09939 41.0843 7.53785C41.2971 7.12011 41.4002 6.65506 41.3836 6.1865C41.3836 5.96273 41.3853 5.73895 41.387 5.51518V5.51504C41.391 4.99562 41.395 4.47619 41.3775 3.95677C41.3666 3.70263 41.4838 3.70063 41.6287 3.69815C41.6548 3.69771 41.6819 3.69725 41.7093 3.69528C41.8883 3.68244 42.0025 3.70812 42.0025 3.95677C41.9899 5.42344 41.9899 6.88988 42.0025 8.35609C42.0025 8.60474 41.9133 8.61758 41.7093 8.61758C41.5052 8.61758 41.3904 8.58582 41.4221 8.34326C41.4401 8.15561 41.4422 7.96679 41.4284 7.7788ZM32.9379 6.12437C32.875 5.15667 33.3804 4.24069 34.2325 3.77775C35.2245 3.27522 36.4356 3.59462 37.0507 4.52099C37.0937 4.60815 37.1298 4.69851 37.1588 4.79126C37.3054 5.25005 37.2865 5.26964 36.821 5.25005C36.6933 5.24397 36.6298 5.21153 36.5912 5.09059C36.4866 4.56251 36.0547 4.16134 35.5203 4.09599C34.9197 4.00323 34.3186 4.26037 33.971 4.75883C33.3501 5.69907 33.433 6.9381 34.1737 7.78721C34.5409 8.1728 35.09 8.32598 35.6037 8.18618C36.1175 8.04638 36.5133 7.6361 36.6345 7.11762C36.6418 7.09045 36.6434 7.05921 36.645 7.02777C36.6492 6.94817 36.6535 6.8672 36.7494 6.84735C36.9053 6.81469 37.0664 6.81469 37.2223 6.84735C37.3184 6.8739 37.2897 6.97181 37.2663 7.05177C37.2617 7.06742 37.2573 7.08239 37.2541 7.09599C37.1296 7.93217 36.4764 8.59057 35.6412 8.72167C34.7261 8.89712 33.7989 8.48196 33.3203 7.68248C33.0511 7.2086 32.9196 6.66897 32.9406 6.12437H32.9379ZM43.5953 4.67622C43.8962 4.09666 44.4715 3.70982 45.1221 3.65001C45.1462 3.64866 45.1763 3.64063 45.2084 3.63209C45.3202 3.60227 45.4557 3.56616 45.441 3.78515C45.4362 3.85773 45.4435 3.92337 45.45 3.98126C45.4687 4.14807 45.4802 4.25055 45.1708 4.26961C44.42 4.30063 43.7941 4.85452 43.6721 5.59596C43.6413 5.80481 43.6306 6.01615 43.6404 6.22704C43.6394 6.33366 43.6384 6.44037 43.6373 6.54716C43.6313 7.14892 43.6252 7.75309 43.6464 8.35677C43.6578 8.62123 43.5305 8.61738 43.3775 8.61276C43.3569 8.61213 43.3359 8.6115 43.3147 8.6115C43.2947 8.6115 43.2754 8.61198 43.2567 8.61244C43.1076 8.61611 43.0025 8.61871 43.0025 8.36893C43.0196 6.8856 43.0196 5.39911 43.0025 3.90947C43.0025 3.68325 43.1064 3.68723 43.2254 3.6918C43.2507 3.69277 43.2767 3.69376 43.3025 3.69258C43.3137 3.69207 43.3249 3.69141 43.3363 3.69076C43.4746 3.68274 43.619 3.67436 43.5897 3.92231C43.5758 4.17349 43.5777 4.42528 43.5953 4.67622Z" fill="#6C7A87"/>
<path fill-rule="evenodd" clip-rule="evenodd" d="M30.9706 11.5945C31.3238 11.2639 31.8614 11.2291 32.2544 11.5114C32.5994 11.8324 32.7018 12.3374 32.5091 12.7675C32.37 13.1895 31.9474 13.4504 31.5077 13.3857L31.2908 13.3411C31.2432 13.3316 31.1996 13.3028 31.1557 13.2738C31.0526 13.2057 30.9481 13.1367 30.7875 13.3154C30.5584 13.5702 30.4429 13.3154 30.4429 13.0668C30.449 12.2823 30.449 11.4985 30.4429 10.708C30.4429 10.5168 30.4746 10.4337 30.6976 10.4276C30.9206 10.4215 30.9848 10.4952 30.9719 10.7148C30.9632 10.8638 30.9654 11.069 30.9677 11.2851C30.9688 11.3874 30.9699 11.4921 30.9699 11.5945H30.9706ZM36.4607 13.31C36.6851 13.3697 36.9171 13.3954 37.1492 13.3864L37.1471 13.3789H37.2877C37.7516 13.392 38.1553 13.064 38.2377 12.6073C38.2823 12.1992 38.0384 11.8999 37.4978 11.7148C37.3763 11.677 37.2571 11.6318 37.1411 11.5796C37.0262 11.5222 36.8924 11.4445 36.9242 11.3053C36.9559 11.1661 37.0897 11.1215 37.2174 11.1026C37.4078 11.0753 37.602 11.1017 37.7782 11.1789C37.9823 11.2627 38.0061 11.1571 38.0328 11.0392L38.0328 11.0392C38.0386 11.0135 38.0445 10.9871 38.0525 10.962L38.063 10.9301C38.1051 10.803 38.1426 10.6901 37.9248 10.637C37.6056 10.5572 37.273 10.5464 36.9492 10.6053C36.5744 10.6467 36.2796 10.9444 36.2417 11.3195C36.2032 11.6904 36.3884 11.9519 36.8154 12.1303C36.9049 12.1667 36.9961 12.1993 37.0874 12.2319C37.1841 12.2665 37.2809 12.3011 37.3762 12.3404C37.4811 12.3756 37.5474 12.479 37.5357 12.5891C37.5249 12.6989 37.4418 12.7878 37.3329 12.806C37.0861 12.8794 36.8206 12.8567 36.5897 12.7425C36.3661 12.6404 36.3296 12.7046 36.2579 12.9276C36.1863 13.1506 36.2309 13.2654 36.4607 13.31ZM26.277 13.1914C26.3735 13.0824 26.3735 12.8879 26.3735 12.4999C26.3735 12.1303 26.3735 11.9453 26.281 11.8533C26.1884 11.761 26.0029 11.762 25.6316 11.7641H25.5039C25.2971 11.7411 25.2397 11.8046 25.2336 12.0343C25.2249 12.1103 25.2538 12.1857 25.311 12.2364C25.3681 12.2871 25.4464 12.3067 25.5208 12.2891C25.6343 12.2762 25.7363 12.3269 25.7235 12.4546C25.7197 12.4923 25.727 12.5328 25.7344 12.5731C25.7518 12.6692 25.7691 12.7643 25.6343 12.8181C25.4044 12.9035 25.1499 12.8929 24.9279 12.7885C24.706 12.6842 24.5354 12.4949 24.4546 12.2634C24.365 12.0362 24.3827 11.7807 24.5026 11.5679C24.6226 11.3551 24.832 11.2078 25.0728 11.1668C25.3533 11.098 25.6477 11.1113 25.9208 11.2053C26.1265 11.2725 26.1528 11.1741 26.1857 11.0505L26.1857 11.0505C26.1905 11.0325 26.1955 11.0139 26.2012 10.9952L26.2094 10.9687C26.2517 10.8327 26.2893 10.7116 26.0735 10.6634C25.5562 10.5198 25.0055 10.5557 24.5113 10.7654C23.9667 11.0151 23.643 11.5854 23.708 12.181C23.7644 12.7515 24.1905 13.2163 24.7539 13.3222C25.0232 13.3848 25.3011 13.4022 25.5762 13.3735L25.5964 13.3711C25.9858 13.3243 26.1801 13.3009 26.277 13.1914ZM41.1528 13.1126C40.8194 13.4029 40.3261 13.4135 39.9805 13.1377C39.5861 12.7851 39.5075 12.1977 39.7953 11.7539C40.0719 11.3233 40.6407 11.1907 41.0791 11.4546C41.0911 11.4609 41.102 11.467 41.112 11.4727C41.1821 11.5123 41.2097 11.5278 41.2771 11.4161C41.3435 11.306 41.4847 11.3355 41.6042 11.3604C41.6233 11.3644 41.6419 11.3683 41.6595 11.3715C41.7543 11.3885 41.74 11.468 41.7264 11.5444C41.7216 11.5709 41.717 11.5971 41.717 11.6201C41.717 11.7282 41.7175 11.8363 41.718 11.9444C41.72 12.3769 41.7221 12.8093 41.6913 13.2417C41.7089 13.5033 41.6108 13.7594 41.423 13.9422C41.2352 14.1251 40.9766 14.2163 40.7156 14.1917C40.4729 14.2084 40.2292 14.1826 39.9953 14.1154C39.8097 14.0596 39.8285 13.9619 39.8576 13.8103L39.8602 13.7965C39.8906 13.637 40.0129 13.6431 40.1345 13.6944C40.2816 13.7565 40.4406 13.7849 40.6001 13.7775C40.9931 13.762 41.1844 13.5453 41.1528 13.1126ZM41.1721 12.3215C41.1721 11.9161 41.0255 11.7222 40.6938 11.7283C40.5427 11.7323 40.4002 11.7993 40.3008 11.9132C40.2015 12.0271 40.1543 12.1774 40.1708 12.3276C40.1572 12.4772 40.2053 12.6259 40.3041 12.7391C40.4029 12.8523 40.5437 12.9202 40.6938 12.9269C40.987 12.9269 41.1654 12.7229 41.1721 12.3229V12.3215ZM31.4999 12.9675C31.1736 12.9715 30.9709 12.7357 30.9709 12.3594H30.9702C30.977 11.9702 31.1682 11.7472 31.4871 11.7432C31.7964 11.7783 32.0312 12.0384 32.0344 12.3497C32.0377 12.661 31.8085 12.9259 31.4999 12.9675ZM28.8984 13.3925C28.6182 13.4146 28.3418 13.3169 28.1377 13.1237C27.9336 12.9306 27.8208 12.6599 27.8274 12.379C27.8215 12.0841 27.9396 11.8002 28.153 11.5966C28.3663 11.393 28.6554 11.2883 28.9497 11.308C29.2359 11.2844 29.5183 11.3861 29.7237 11.5868C29.9292 11.7874 30.0375 12.0673 30.0207 12.354C30.0261 12.646 29.9066 12.9264 29.6922 13.1247C29.4779 13.3231 29.1891 13.4205 28.8984 13.3925ZM28.9113 11.7154C29.2492 11.7087 29.4471 11.9573 29.4471 12.3593H29.4465C29.4657 12.5181 29.4188 12.6779 29.3167 12.801C29.2145 12.9241 29.0662 12.9997 28.9066 13.01C28.5846 12.9779 28.3468 12.6949 28.3708 12.3722C28.3476 12.2119 28.393 12.0493 28.4959 11.9243C28.5988 11.7993 28.7496 11.7235 28.9113 11.7154ZM34.6627 12.6337C34.6627 12.6808 34.6634 12.7272 34.664 12.7733V12.7733V12.7734C34.6654 12.8647 34.6667 12.9549 34.6627 13.0479C34.6608 13.0922 34.6677 13.1321 34.6739 13.1674C34.6871 13.2434 34.6966 13.2978 34.6052 13.3283C34.4715 13.3729 34.3052 13.3958 34.2417 13.3093C34.1782 13.2229 34.0438 13.258 33.9417 13.3033C33.6744 13.4512 33.3466 13.4363 33.0938 13.2648C32.8355 13.0847 32.8485 12.9442 32.8673 12.7423L32.8708 12.7039C32.8863 12.498 33.0101 12.3159 33.1958 12.2256C33.4119 12.1106 33.6524 12.0495 33.8971 12.0472C33.9078 12.0472 33.9191 12.0477 33.9307 12.0482C34.002 12.0514 34.0841 12.055 34.0951 11.9452C34.0935 11.8561 34.0341 11.7786 33.9485 11.7539C33.7251 11.6781 33.4814 11.6894 33.2661 11.7857L33.2552 11.7893C33.1644 11.8196 33.0923 11.8436 33.0559 11.7026L33.0514 11.6851C33.0163 11.5503 32.9989 11.4834 33.1519 11.4283C33.478 11.2941 33.8404 11.2762 34.1782 11.3776C34.4757 11.4679 34.6731 11.7496 34.6566 12.06C34.6652 12.1875 34.6623 12.315 34.6595 12.4425C34.658 12.5062 34.6566 12.5699 34.6566 12.6337H34.6627ZM34.001 12.8734C33.9137 12.9584 33.7962 13.0051 33.6744 13.0033H33.6751H33.6812C33.5406 13.0033 33.4068 12.9587 33.394 12.7546C33.3812 12.5506 33.6494 12.385 33.9744 12.385C34.1014 12.385 34.1399 12.4296 34.1399 12.5506C34.1383 12.6724 34.0884 12.7885 34.001 12.8734ZM42.3227 11.3708C42.352 11.3688 42.3821 11.3651 42.4122 11.3613C42.5783 11.3405 42.7448 11.3197 42.7883 11.6005C42.9412 11.4434 43.144 11.3443 43.3619 11.3201C43.7385 11.2606 44.0955 11.5075 44.1727 11.8809C44.2355 12.3221 44.2527 12.7686 44.2241 13.2134C44.2241 13.3814 44.1211 13.3648 44.0199 13.3485C43.9791 13.342 43.9385 13.3354 43.9051 13.3411C43.7889 13.3607 43.6626 13.3667 43.6693 13.1816C43.6754 12.8816 43.6754 12.5884 43.6693 12.289C43.6633 11.9897 43.5099 11.7404 43.2639 11.7485C43.018 11.7566 42.8369 11.9715 42.8301 12.3093C42.8268 12.4752 42.8253 12.632 42.8238 12.7863L42.8238 12.7882V12.7885L42.8238 12.7888L42.8238 12.7892L42.8238 12.7896C42.8222 12.9484 42.8207 13.1046 42.8173 13.2654L42.8139 13.2654C42.7029 13.4174 42.5505 13.38 42.4184 13.3475C42.3896 13.3404 42.3617 13.3336 42.3355 13.329C42.2271 13.31 42.2443 13.2108 42.2606 13.1167C42.2663 13.0836 42.272 13.051 42.272 13.0229C42.2679 12.5594 42.2679 12.0938 42.272 11.6263C42.2699 11.6093 42.2659 11.5913 42.2617 11.5728C42.2456 11.5008 42.2279 11.4219 42.3193 11.3708L42.3193 11.3709C42.3193 11.6168 42.3193 11.8468 42.3203 12.0871C42.3196 12.3166 42.3197 12.5462 42.3227 12.7742C42.3235 12.8395 42.3224 12.8963 42.3214 12.9456C42.3198 13.0247 42.3186 13.0847 42.3266 13.1301C42.3305 13.1723 42.3394 13.2019 42.3582 13.2225C42.4024 13.2711 42.5017 13.2697 42.72 13.2666L42.8079 13.2655C42.4444 13.2692 42.3492 13.2572 42.3266 13.1301C42.3229 13.0891 42.3238 13.0363 42.325 12.9682V12.9681V12.968V12.9679V12.9678C42.3259 12.9135 42.3271 12.8495 42.3261 12.7742C42.3229 12.5243 42.3212 12.3016 42.3203 12.0871C42.3206 12.004 42.321 11.921 42.3213 11.838C42.322 11.6821 42.3227 11.5265 42.3227 11.3715L42.3193 11.3709C42.3193 11.3708 42.3193 11.3708 42.3193 11.3708H42.3227ZM35.7468 12.2663C35.7479 12.153 35.7489 12.0395 35.7489 11.9255H35.7456C35.7456 11.8205 35.7449 11.7153 35.7443 11.6102L35.7443 11.6099C35.7423 11.3014 35.7404 10.9933 35.755 10.689C35.7638 10.4721 35.653 10.4404 35.4935 10.4465L35.4619 10.4475C35.3184 10.4519 35.2131 10.4551 35.2131 10.6694C35.2257 11.4857 35.2257 12.3019 35.2131 13.1181C35.2131 13.3388 35.3073 13.3419 35.473 13.3472L35.4935 13.3478C35.6719 13.3539 35.7611 13.3154 35.755 13.1053C35.7416 12.824 35.7442 12.5458 35.7468 12.2664V12.2663ZM27.4011 12.2708V12.2708C27.3985 12.5655 27.3958 12.8594 27.4093 13.1499C27.4146 13.3504 27.3077 13.3466 27.1905 13.3423H27.1905H27.1905H27.1905C27.1735 13.3417 27.1562 13.3411 27.139 13.3411L27.1088 13.3413C26.9845 13.3426 26.8694 13.3438 26.8775 13.1431C26.8861 12.3057 26.8861 11.4706 26.8775 10.6377C26.8775 10.4439 26.9775 10.4454 27.0867 10.4469C27.1069 10.4472 27.1275 10.4475 27.1478 10.4465L27.1682 10.4455C27.2918 10.439 27.4176 10.4325 27.4093 10.6445C27.393 10.953 27.3955 11.2647 27.398 11.575C27.3989 11.6881 27.3998 11.801 27.3998 11.9134L27.4032 11.9127C27.4032 12.032 27.4022 12.1514 27.4011 12.2707V12.2707V12.2708ZM39.2085 12.6217C39.2099 12.5339 39.2113 12.4463 39.2113 12.3593L39.2086 12.36C39.2086 12.269 39.208 12.1736 39.2073 12.0781V12.0779V12.0778C39.2059 11.8865 39.2046 11.695 39.2086 11.5377C39.2135 11.3495 39.1085 11.3563 39.0014 11.3633C38.9743 11.365 38.9471 11.3668 38.9215 11.3654L38.9036 11.3644C38.7822 11.3575 38.6609 11.3506 38.6667 11.5438C38.6753 12.0785 38.6753 12.6161 38.6667 13.1566C38.6614 13.3573 38.7715 13.3533 38.8895 13.3491C38.9066 13.3485 38.9239 13.3479 38.9411 13.3479C38.9636 13.3479 38.9865 13.3496 39.0089 13.3514C39.1211 13.36 39.222 13.3678 39.2113 13.1499C39.2028 12.9754 39.2056 12.7981 39.2085 12.6218V12.6218V12.6217ZM39.2627 10.7783C39.237 10.9695 39.1417 11.0843 38.9505 11.0843C38.8651 11.0939 38.7801 11.0641 38.7193 11.0034C38.6586 10.9426 38.6288 10.8576 38.6384 10.7722C38.6369 10.6904 38.6715 10.6121 38.7329 10.5581C38.7943 10.5041 38.8764 10.4799 38.9573 10.4918C39.1186 10.4905 39.252 10.6171 39.2593 10.7783H39.2627Z" fill="#6C7A87"/>
<path fill-rule="evenodd" clip-rule="evenodd" d="M25.0959 15.6248C25.0893 15.6551 25.0811 15.6924 25.0669 15.7453C25.0208 15.6931 24.9961 15.6189 24.9732 15.5498C24.9233 15.3996 24.8817 15.2741 24.6446 15.4561C24.6022 15.3818 24.5166 15.3738 24.4311 15.3659C24.3114 15.3547 24.1919 15.3436 24.1919 15.15C24.1919 15.0885 24.1325 15.0696 24.071 15.0824C24.0095 15.0953 24.0034 15.1527 24.0034 15.2101C24.0034 15.4013 24.0034 15.6757 24.0095 15.7838C24.0107 15.8052 24.0092 15.8298 24.0076 15.8555C24.0012 15.9598 23.9936 16.0819 24.1622 16.077C24.1966 16.076 24.2316 16.0769 24.2664 16.0778C24.444 16.0822 24.6158 16.0864 24.6723 15.8412C24.6968 15.7319 24.7137 15.6211 24.723 15.5094C24.7468 15.563 24.773 15.6132 24.7981 15.6612C24.8806 15.819 24.9509 15.9534 24.8825 16.1088C24.8733 16.1308 24.8583 16.1508 24.8441 16.1696C24.8093 16.2158 24.7799 16.2548 24.8568 16.3L24.8886 16.3128C24.9747 16.3425 25.0687 16.2969 25.0987 16.2108C25.1788 16.0166 25.2428 15.8162 25.2899 15.6115C25.2932 15.5952 25.3029 15.5753 25.3134 15.5539C25.3443 15.4909 25.3815 15.415 25.2771 15.3817C25.1563 15.3432 25.1302 15.4709 25.1171 15.5353C25.115 15.5454 25.1133 15.554 25.1115 15.5601C25.1058 15.5801 25.1014 15.6001 25.0959 15.6248ZM24.3464 15.529C24.4545 15.5412 24.4931 15.6304 24.4931 15.7263C24.4912 15.7355 24.4895 15.7447 24.4878 15.7537C24.4733 15.8318 24.461 15.8986 24.3464 15.8925C24.2187 15.8858 24.2005 15.7837 24.2059 15.6946C24.2113 15.6054 24.2383 15.5168 24.3464 15.529Z" fill="#6C7A87"/>
<path fill-rule="evenodd" clip-rule="evenodd" d="M31.6646 16.1404C31.3048 16.1476 30.9527 16.0355 30.6633 15.8214C30.5179 15.7115 30.4346 15.538 30.4397 15.3557C30.4448 15.1735 30.5376 15.0049 30.689 14.9032C31.285 14.5236 32.0452 14.5162 32.6484 14.8843C32.8317 14.986 32.9427 15.1817 32.936 15.3913C32.9293 15.6008 32.8061 15.789 32.6167 15.8789C32.3322 16.0579 32.0013 16.1491 31.6653 16.141L31.6646 16.1404ZM28.6588 15.6684L28.6588 15.6684L28.6588 15.6684C28.688 15.5809 28.7196 15.4859 28.7512 15.3755C28.8003 15.4523 28.8396 15.5174 28.8765 15.5785L28.8765 15.5785C28.9375 15.6797 28.9921 15.7702 29.0742 15.8856C29.1085 15.9634 29.1849 16.014 29.2699 16.0153C29.3549 16.0166 29.4328 15.9683 29.4695 15.8917C29.5565 15.7195 29.6706 15.5623 29.8073 15.4262C29.8227 15.4809 29.8365 15.5315 29.8498 15.5804C29.8861 15.7139 29.919 15.835 29.9729 15.9937C30.0398 16.1908 30.1725 16.1609 30.3299 16.1254L30.33 16.1254C30.3458 16.1218 30.3619 16.1182 30.3783 16.1147C30.5123 16.0863 30.4663 15.9999 30.4271 15.9263C30.4141 15.9019 30.4019 15.8789 30.3972 15.86C30.328 15.6072 30.249 15.3611 30.1699 15.1144L30.1698 15.1142C30.1391 15.0187 30.1084 14.923 30.0783 14.8269C30.0731 14.8116 30.0693 14.7956 30.0654 14.7795C30.0499 14.7154 30.0345 14.6513 29.9377 14.6356C29.825 14.6174 29.7786 14.6935 29.7313 14.7713L29.7208 14.7883L29.2681 15.4836L28.8343 14.8208C28.8278 14.8106 28.8214 14.8002 28.8149 14.7898C28.7644 14.7082 28.7117 14.6231 28.5985 14.6356C28.4969 14.6469 28.4804 14.725 28.465 14.7984L28.465 14.7984C28.461 14.8171 28.4572 14.8356 28.4519 14.8525C28.4106 14.9785 28.3685 15.1163 28.327 15.2524C28.2591 15.4749 28.1925 15.6929 28.133 15.8471C28.0371 16.0958 28.2222 16.1336 28.356 16.1275L28.3602 16.1273C28.4906 16.1214 28.5301 16.1196 28.5729 15.9491C28.5959 15.8575 28.6257 15.7678 28.6588 15.6684ZM26.9222 15.535H27.5398C27.2234 15.8858 26.7004 15.9583 26.3006 15.7066C26.1887 15.6293 26.123 15.5012 26.1256 15.3653C26.1282 15.2294 26.1987 15.1038 26.3134 15.0309C26.5777 14.8182 26.9423 14.7807 27.2445 14.935C27.3958 15.0077 27.5611 15.0468 27.7289 15.0498C27.7491 15.0498 27.7673 15.0582 27.7846 15.0661C27.822 15.0832 27.8553 15.0985 27.8945 15.0241C27.9385 14.9408 27.8853 14.9142 27.8349 14.889C27.8196 14.8813 27.8045 14.8737 27.7925 14.8647C27.1951 14.5531 26.4812 14.5628 25.8925 14.8904C25.7085 15.0003 25.6018 15.204 25.616 15.4178C25.6303 15.6316 25.7631 15.8193 25.96 15.9039C26.5059 16.221 27.1775 16.2307 27.7323 15.9296C27.9088 15.8486 28.0414 15.695 28.0958 15.5086C28.1343 15.362 28.1087 15.26 27.9175 15.266C27.6689 15.2752 27.424 15.274 27.1773 15.2729C27.0948 15.2725 27.0121 15.2721 26.9289 15.2721C26.8398 15.2721 26.7438 15.2836 26.7438 15.3998C26.7438 15.516 26.833 15.535 26.9222 15.535ZM32.4235 15.3755C32.4296 15.6498 32.06 15.9106 31.6648 15.9046H31.6654C31.2702 15.8985 30.9384 15.6627 30.9384 15.3823C30.9384 15.1019 31.2573 14.866 31.6587 14.8593C32.06 14.8525 32.4175 15.1012 32.4235 15.3755Z" fill="#6C7A87"/>
</svg>
